# xmcd CD database file
#
# Track frame offsets:
#	150
#	15603
#	28592
#	48058
#	69464
#	80619
#	95217
#	109589
#	123330
#	136193
#	147880
#	164591
#	177470
#	197667
#
# Disc length: 2839 seconds
#
# Revision: 0
# Processed by: cddbd v1.5.1PL0 Copyright (c) Steve Scherf et al.
# Submitted via: CDex 1.50beta9
#
DISCID=be0b150e
DTITLE=Bobby Flores - Just For The Record
DYEAR=2003
DGENRE=Country
TTITLE0=One More Time
TTITLE1=I'd Fight The World
TTITLE2=Just For The Record
TTITLE3=Bubbles In My Beer
TTITLE4=I'll Find A Way (To Free Myself)
TTITLE5=The Same Two Lips
TTITLE6=Spicher Waltz
TTITLE7=I Don't Know Why (I Keep Loving You)
TTITLE8=I Lie A Lot
TTITLE9=Be A Good Girl
TTITLE10=Soft Rain
TTITLE11=Your Old Loveletters
TTITLE12=I'm Still Not Over You
TTITLE13=Oh Lonesome Me
EXTD=YEAR: 2003
EXTT0=
EXTT1=
EXTT2=
EXTT3=
EXTT4=
EXTT5=
EXTT6=
EXTT7=
EXTT8=
EXTT9=
EXTT10=
EXTT11=
EXTT12=
EXTT13=
PLAYORDER=
